<?xml version="1.0" standalone="no"?>
<!DOCTYPE svg PUBLIC "-//W3C//DTD SVG 20010904//EN"
 "http://www.w3.org/TR/2001/REC-SVG-20010904/DTD/svg10.dtd">
<svg version="1.0" xmlns="http://www.w3.org/2000/svg"
 width="20.000000pt" height="20.000000pt" viewBox="0 0 512.000000 512.000000"
 preserveAspectRatio="xMidYMid meet">

<g transform="translate(0.000000,512.000000) scale(0.100000,-0.100000)"
 stroke="none">
<path d="M824 4735 c-154 -33 -267 -98 -400 -230 -88 -88 -107 -112 -151 -202
-94 -187 -88 -77 -88 -1563 l0 -1305 22 -85 c85 -320 357 -565 679 -610 98
-13 2521 -14 2615 0 96 14 215 54 287 97 183 108 332 296 386 484 31 108 37
245 34 717 l-3 464 -28 24 c-19 16 -40 24 -65 24 -34 0 -47 -10 -152 -115
l-115 -115 -5 -433 c-5 -383 -7 -438 -23 -482 -42 -115 -154 -232 -267 -278
l-55 -22 -1275 -3 c-1426 -3 -1343 -7 -1458 67 -98 64 -166 154 -196 262 -15
50 -16 188 -14 1335 l3 1279 36 76 c64 134 190 233 328 259 83 15 2461 13
2569 -2 l84 -12 99 100 c80 82 99 107 99 130 0 43 -26 73 -84 99 -129 57 -80
55 -1498 54 -1047 0 -1315 -3 -1364 -14z"/>
<path d="M4330 4561 c-14 -4 -39 -15 -55 -24 -17 -9 -451 -437 -965 -951
l-935 -936 -395 395 c-269 268 -407 399 -432 410 -55 22 -124 19 -183 -9 -63
-30 -406 -372 -430 -428 -25 -62 -20 -145 14 -203 39 -67 1281 -1305 1333
-1328 45 -21 137 -22 186 -2 51 22 2414 2382 2442 2441 25 51 26 142 3 192
-21 46 -353 385 -410 419 -45 26 -130 38 -173 24z"/>
</g>
</svg>
