<?xml version="1.0" standalone="no"?>
<!DOCTYPE svg PUBLIC "-//W3C//DTD SVG 20010904//EN"
 "http://www.w3.org/TR/2001/REC-SVG-20010904/DTD/svg10.dtd">
<svg version="1.0" xmlns="http://www.w3.org/2000/svg"
 width="20.000000pt" height="20.000000pt" viewBox="0 0 512.000000 512.000000"
 preserveAspectRatio="xMidYMid meet">

<g transform="translate(0.000000,512.000000) scale(0.100000,-0.100000)"
 stroke="none">
<path d="M2376 4608 c-290 -25 -608 -128 -857 -277 -159 -95 -272 -183 -409
-321 -187 -186 -329 -390 -426 -609 -306 -697 -219 -1476 234 -2086 85 -116
291 -322 407 -407 120 -89 275 -181 394 -234 697 -306 1476 -219 2086 234 116
85 322 291 407 407 89 120 181 275 234 394 306 697 219 1476 -234 2086 -85
116 -291 322 -407 407 -418 310 -916 452 -1429 406z m519 -428 c662 -141 1152
-634 1297 -1300 19 -91 22 -134 22 -325 0 -191 -3 -234 -22 -325 -47 -215
-124 -402 -240 -580 -241 -372 -613 -624 -1062 -722 -91 -19 -134 -22 -325
-22 -191 0 -234 3 -325 22 -215 47 -402 124 -580 240 -373 242 -624 612 -722
1062 -19 91 -22 134 -22 325 0 191 3 234 22 325 98 450 350 821 722 1063 205
133 413 212 659 252 130 21 446 13 576 -15z"/>
<path d="M1725 3380 l-180 -180 338 -338 337 -337 -337 -338 -338 -337 183
-182 182 -183 337 338 338 337 337 -337 338 -338 182 183 183 182 -338 337
-337 338 337 337 338 338 -183 182 -182 183 -338 -338 -337 -337 -335 335
c-184 184 -337 335 -340 335 -3 0 -86 -81 -185 -180z"/>
</g>
</svg>
